<svg xmlns="http://www.w3.org/2000/svg" xmlns:xlink="http://www.w3.org/1999/xlink" version="1.1" x="0px" y="0px" viewBox="0 0 64 80" enable-background="new 0 0 64 64" xml:space="preserve"><g><path d="M27.973,28.439c-0.69,0.673-1.775,1.469-3.213,1.633c-0.18,0.021-0.359,0.031-0.539,0.031   c-1.483,0-2.959-0.698-4.394-2.082l1.389-1.439c1.158,1.116,2.268,1.628,3.317,1.503c1.565-0.178,2.599-1.705,2.609-1.721   l0.611,0.397c-0.45-3.767-0.639-7.957-0.525-12.591c-2.717-1.082-5.697-0.31-8.406,3.308c0,0-2.444,2.393-4.122,2.78   c-1.116,0.26-3.393,0.706-4.54,0.679C6.664,20.848-3.314,20.155,1.113,35.44C4.62,47.545,16.079,61.102,26.861,57.021   c4.398-1.665,7.561-5.739,9.261-10.258C32.045,43.288,29.243,37.118,27.973,28.439z M12.056,34.396   c-0.924,0.558-1.915,0.721-2.757,0.721c-1.135,0-1.998-0.296-2.06-0.317l0.658-1.889c0.017,0.007,1.783,0.593,3.135-0.233   c0.892-0.544,1.462-1.623,1.695-3.205l1.979,0.291C14.381,31.97,13.489,33.529,12.056,34.396z M31.15,44.498   c-0.843-0.773-3.064-0.962-4.014-1.042c-1.635-0.137-2.63-0.19-4.134,0.32c-1.573,0.535-2.771,1.094-3.887,2.225   c-0.899,0.914-1.976,2.636-2.014,3.486l-1.998-0.09c0.077-1.72,1.776-3.977,2.587-4.8c1.388-1.407,2.869-2.103,4.667-2.714   c1.84-0.626,3.097-0.576,4.946-0.42c1.347,0.113,3.853,0.325,5.199,1.562L31.15,44.498z"/><g><path d="M45.415,47.449c-3.487,0-6.476-1.267-8.881-3.764c-5.043-5.236-7.424-15.589-6.884-29.939    c0.219-5.833,2.43-6.508,4.075-6.508c1.954,0,4.308,1.084,6.026,1.876c0.65,0.3,1.213,0.559,1.69,0.734    c1.481,0.545,4.629,0.865,4.762,0.878c0.126,0.013,0.257,0.019,0.393,0.019c1.92,0,4.633-1.271,4.936-1.417l0.069-0.033    l0.063-0.043c1.813-1.24,3.439-1.868,4.832-1.868c4.921,0,6.351,8.153,6.464,11.009c0.398,10.083-2.223,19.181-7.013,24.335    c-2.784,2.996-6.16,4.582-10.032,4.713C45.748,47.446,45.582,47.449,45.415,47.449C45.416,47.449,45.416,47.449,45.415,47.449z     M35.988,33.46l0.363,0.932c0.795,2.035,3.505,3.75,4.481,4.24c1.938,0.972,3.696,1.171,5.739,1.171    c2.13,0,3.448-0.506,5.217-1.278c1.347-0.59,3.852-1.687,4.893-3.589l0.48-0.877l-3.509-1.922l-0.479,0.877    c-0.257,0.469-1.262,1.09-2.988,1.847c-1.419,0.619-2.225,0.942-3.613,0.942c-1.556,0-2.7-0.122-3.946-0.747    c-1.103-0.552-2.394-1.726-2.548-2.121l-0.364-0.932L35.988,33.46z M38.213,23.114c0.133,0,0.263,0.013,0.385,0.04    c0.72,0.157,1.384,0.82,1.976,1.971l0.457,0.889l3.559-1.828l-0.457-0.89c-1.165-2.264-2.74-3.627-4.682-4.051    c-0.4-0.087-0.815-0.131-1.232-0.131c-2.311,0-4.089,1.339-4.284,1.492l-0.789,0.618l2.479,3.153l0.788-0.63    C36.412,23.748,37.277,23.114,38.213,23.114z M53.667,19.117c-0.413,0-0.824,0.043-1.222,0.129    c-1.946,0.425-3.521,1.788-4.686,4.051l-0.457,0.89l3.559,1.828l0.457-0.889c0.59-1.147,1.252-1.81,1.969-1.969    c0.123-0.027,0.256-0.042,0.392-0.042c0.944,0,1.823,0.648,1.832,0.655l0.783,0.585l2.452-3.132l-0.787-0.616    C57.765,20.454,55.988,19.117,53.667,19.117z"/><path d="M33.725,6.238l-0.001,2c1.735,0,3.975,1.032,5.609,1.785c0.669,0.309,1.248,0.575,1.764,0.765    c1.572,0.578,4.66,0.899,5.008,0.935c0.157,0.016,0.321,0.023,0.491,0.023c2.096,0,4.839-1.261,5.367-1.514l0.139-0.066    l0.127-0.086c1.644-1.124,3.08-1.694,4.268-1.694c4.165,0,5.386,8.055,5.465,10.048c0.388,9.823-2.134,18.651-6.746,23.615    c-2.597,2.794-5.737,4.272-9.333,4.394c-0.156,0.006-0.312,0.008-0.467,0.008c-3.205,0-5.95-1.163-8.16-3.457    c-4.851-5.036-7.135-15.136-6.606-29.208c0.208-5.546,2.217-5.546,3.075-5.546L33.725,6.238 M35.461,25.788L37,24.556    c0.183-0.127,0.736-0.442,1.213-0.442c0.062,0,0.119,0.005,0.172,0.017c0.396,0.086,0.87,0.615,1.3,1.451l0.914,1.779l1.778-0.914    l1.779-0.914l1.78-0.914l-0.916-1.78c-1.308-2.542-3.11-4.08-5.357-4.57c-0.471-0.103-0.957-0.154-1.445-0.154    c-2.592,0-4.537,1.419-4.9,1.704l-1.579,1.236l1.239,1.576l1.236,1.572L35.461,25.788 M51.293,27.361l0.914-1.778    c0.429-0.834,0.901-1.362,1.296-1.45c0.054-0.012,0.112-0.018,0.176-0.018c0.496,0,1.073,0.339,1.249,0.467l1.563,1.146    l1.194-1.527l1.232-1.575l1.232-1.575l-1.575-1.232c-0.223-0.174-2.252-1.702-4.908-1.702c-0.483,0-0.966,0.051-1.438,0.152    c-2.248,0.491-4.051,2.029-5.357,4.571l-0.915,1.779l1.779,0.914l1.779,0.914L51.293,27.361 M46.572,40.803    c2.319,0,3.791-0.564,5.619-1.362c1.455-0.638,4.163-1.824,5.368-4.025l0.959-1.754l-1.753-0.96l-1.754-0.961l-1.732-0.998    l-0.961,1.755c-0.111,0.15-0.581,0.591-2.531,1.445c-1.459,0.637-2.072,0.859-3.215,0.859c-1.406,0-2.429-0.104-3.499-0.642    c-0.829-0.415-1.847-1.289-2.088-1.65l-0.704-1.803l-1.863,0.729l-1.863,0.729l-1.862,0.728l0.728,1.862    c1.097,2.807,4.927,4.751,4.965,4.771C42.623,40.647,44.682,40.803,46.572,40.803 M33.725,6.238c-2.631,0-4.856,1.652-5.074,7.471    C27.8,36.348,34.224,48.449,45.415,48.449c0.178,0,0.354-0.003,0.534-0.009c12.205-0.412,18.627-14.476,18.01-30.086    c-0.11-2.792-1.587-11.969-7.463-11.969c-1.497,0-3.278,0.595-5.396,2.042c0,0-2.756,1.318-4.504,1.318    c-0.102,0-0.199-0.004-0.293-0.014c-1.141-0.114-3.438-0.425-4.516-0.821C40.062,8.274,36.644,6.238,33.725,6.238L33.725,6.238z     M35.786,22.966l-1.236-1.572c0.077-0.061,1.655-1.279,3.668-1.279c0.33,0,0.671,0.033,1.02,0.108    c1.637,0.357,2.983,1.546,4.005,3.531l-1.779,0.914c-0.734-1.429-1.627-2.268-2.652-2.491c-0.201-0.044-0.402-0.063-0.598-0.063    C36.912,22.114,35.799,22.956,35.786,22.966L35.786,22.966z M50.429,24.668l-1.779-0.914c1.021-1.986,2.369-3.174,4.006-3.531    c0.346-0.074,0.685-0.106,1.012-0.106c2.017,0,3.599,1.217,3.676,1.277l-1.232,1.575c-0.013-0.009-1.126-0.854-2.432-0.854    c-0.199,0-0.404,0.02-0.609,0.065C52.049,22.408,51.16,23.246,50.429,24.668L50.429,24.668z M46.572,38.803    c-1.9,0-3.527-0.181-5.291-1.065c-1.033-0.518-3.371-2.105-3.998-3.71l1.863-0.729c0.305,0.78,1.907,2.088,3.031,2.65    c1.417,0.711,2.732,0.854,4.395,0.854c1.586,0,2.513-0.371,4.015-1.026c0.871-0.382,2.914-1.277,3.464-2.282l1.754,0.961    c-0.877,1.603-3.179,2.611-4.416,3.153C49.687,38.352,48.513,38.803,46.572,38.803L46.572,38.803z"/></g></g><text x="0" y="79" fill="#000000" font-size="5px" font-weight="bold" font-family="'Helvetica Neue', Helvetica, Arial-Unicode, Arial, Sans-serif">Created by Creative Stall</text><text x="0" y="84" fill="#000000" font-size="5px" font-weight="bold" font-family="'Helvetica Neue', Helvetica, Arial-Unicode, Arial, Sans-serif">from the Noun Project</text></svg>